<svg xmlns="http://www.w3.org/2000/svg" version="1.1" xmlns:xlink="http://www.w3.org/1999/xlink" xmlns:svgjs="http://svgjs.dev/svgjs" width="1440" height="560" preserveAspectRatio="none" viewBox="0 0 1440 560"><g mask="url(&quot;#SvgjsMask1146&quot;)" fill="none"><path d="M187.05 -7.59L252 29.91L252 104.91L187.05 142.41L122.09 104.91L122.09 29.91zM187.05 217.41L252 254.91L252 329.91L187.05 367.41L122.09 329.91L122.09 254.91zM836.58 -7.59L901.54 29.91L901.54 104.91L836.58 142.41L771.63 104.91L771.63 29.91zM836.58 217.41L901.54 254.91L901.54 329.91L836.58 367.41L771.63 329.91L771.63 254.91zM1161.35 104.91L1226.31 142.41L1226.31 217.41L1161.35 254.91L1096.4 217.41L1096.4 142.41zM1551.08 554.91L1616.03 592.41L1616.03 667.41L1551.08 704.91L1486.12 667.41L1486.12 592.41z" stroke="#03305d" stroke-width="2"></path><path d="M179.55 -7.59 a7.5 7.5 0 1 0 15 0 a7.5 7.5 0 1 0 -15 0zM244.5 29.91 a7.5 7.5 0 1 0 15 0 a7.5 7.5 0 1 0 -15 0zM244.5 104.91 a7.5 7.5 0 1 0 15 0 a7.5 7.5 0 1 0 -15 0zM179.55 142.41 a7.5 7.5 0 1 0 15 0 a7.5 7.5 0 1 0 -15 0zM114.59 104.91 a7.5 7.5 0 1 0 15 0 a7.5 7.5 0 1 0 -15 0zM114.59 29.91 a7.5 7.5 0 1 0 15 0 a7.5 7.5 0 1 0 -15 0zM179.55 217.41 a7.5 7.5 0 1 0 15 0 a7.5 7.5 0 1 0 -15 0zM244.5 254.91 a7.5 7.5 0 1 0 15 0 a7.5 7.5 0 1 0 -15 0zM244.5 329.91 a7.5 7.5 0 1 0 15 0 a7.5 7.5 0 1 0 -15 0zM179.55 367.41 a7.5 7.5 0 1 0 15 0 a7.5 7.5 0 1 0 -15 0zM114.59 329.91 a7.5 7.5 0 1 0 15 0 a7.5 7.5 0 1 0 -15 0zM114.59 254.91 a7.5 7.5 0 1 0 15 0 a7.5 7.5 0 1 0 -15 0zM829.08 -7.59 a7.5 7.5 0 1 0 15 0 a7.5 7.5 0 1 0 -15 0zM894.04 29.91 a7.5 7.5 0 1 0 15 0 a7.5 7.5 0 1 0 -15 0zM894.04 104.91 a7.5 7.5 0 1 0 15 0 a7.5 7.5 0 1 0 -15 0zM829.08 142.41 a7.5 7.5 0 1 0 15 0 a7.5 7.5 0 1 0 -15 0zM764.13 104.91 a7.5 7.5 0 1 0 15 0 a7.5 7.5 0 1 0 -15 0zM764.13 29.91 a7.5 7.5 0 1 0 15 0 a7.5 7.5 0 1 0 -15 0zM829.08 217.41 a7.5 7.5 0 1 0 15 0 a7.5 7.5 0 1 0 -15 0zM894.04 254.91 a7.5 7.5 0 1 0 15 0 a7.5 7.5 0 1 0 -15 0zM894.04 329.91 a7.5 7.5 0 1 0 15 0 a7.5 7.5 0 1 0 -15 0zM829.08 367.41 a7.5 7.5 0 1 0 15 0 a7.5 7.5 0 1 0 -15 0zM764.13 329.91 a7.5 7.5 0 1 0 15 0 a7.5 7.5 0 1 0 -15 0zM764.13 254.91 a7.5 7.5 0 1 0 15 0 a7.5 7.5 0 1 0 -15 0zM1153.85 104.91 a7.5 7.5 0 1 0 15 0 a7.5 7.5 0 1 0 -15 0zM1218.81 142.41 a7.5 7.5 0 1 0 15 0 a7.5 7.5 0 1 0 -15 0zM1218.81 217.41 a7.5 7.5 0 1 0 15 0 a7.5 7.5 0 1 0 -15 0zM1153.85 254.91 a7.5 7.5 0 1 0 15 0 a7.5 7.5 0 1 0 -15 0zM1088.9 217.41 a7.5 7.5 0 1 0 15 0 a7.5 7.5 0 1 0 -15 0zM1088.9 142.41 a7.5 7.5 0 1 0 15 0 a7.5 7.5 0 1 0 -15 0zM1543.58 554.91 a7.5 7.5 0 1 0 15 0 a7.5 7.5 0 1 0 -15 0zM1608.53 592.41 a7.5 7.5 0 1 0 15 0 a7.5 7.5 0 1 0 -15 0zM1608.53 667.41 a7.5 7.5 0 1 0 15 0 a7.5 7.5 0 1 0 -15 0zM1543.58 704.91 a7.5 7.5 0 1 0 15 0 a7.5 7.5 0 1 0 -15 0zM1478.62 667.41 a7.5 7.5 0 1 0 15 0 a7.5 7.5 0 1 0 -15 0zM1478.62 592.41 a7.5 7.5 0 1 0 15 0 a7.5 7.5 0 1 0 -15 0z" fill="#03305d"></path><path d="M46.44 36.19L90.61 61.69L90.61 112.69L46.44 138.19L2.27 112.69L2.27 61.69zM134.78 36.19L178.94 61.69L178.94 112.69L134.78 138.19L90.61 112.69L90.61 61.69zM90.61 418.69L134.78 444.19L134.78 495.19L90.61 520.69L46.44 495.19L46.44 444.19zM223.11 189.19L267.28 214.69L267.28 265.69L223.11 291.19L178.94 265.69L178.94 214.69zM178.94 418.69L223.11 444.19L223.11 495.19L178.94 520.69L134.78 495.19L134.78 444.19zM311.45 189.19L355.62 214.69L355.62 265.69L311.45 291.19L267.28 265.69L267.28 214.69zM311.45 342.19L355.62 367.69L355.62 418.69L311.45 444.19L267.28 418.69L267.28 367.69zM443.96 265.69L488.12 291.19L488.12 342.19L443.96 367.69L399.79 342.19L399.79 291.19zM576.46 342.19L620.63 367.69L620.63 418.69L576.46 444.19L532.29 418.69L532.29 367.69zM532.29 418.69L576.46 444.19L576.46 495.19L532.29 520.69L488.12 495.19L488.12 444.19zM664.8 36.19L708.97 61.69L708.97 112.69L664.8 138.19L620.63 112.69L620.63 61.69zM620.63 418.69L664.8 444.19L664.8 495.19L620.63 520.69L576.46 495.19L576.46 444.19zM753.14 189.19L797.3 214.69L797.3 265.69L753.14 291.19L708.97 265.69L708.97 214.69zM708.97 265.69L753.14 291.19L753.14 342.19L708.97 367.69L664.8 342.19L664.8 291.19zM841.47 36.19L885.64 61.69L885.64 112.69L841.47 138.19L797.3 112.69L797.3 61.69zM841.47 342.19L885.64 367.69L885.64 418.69L841.47 444.19L797.3 418.69L797.3 367.69zM885.64 112.69L929.81 138.19L929.81 189.19L885.64 214.69L841.47 189.19L841.47 138.19zM929.81 189.19L973.98 214.69L973.98 265.69L929.81 291.19L885.64 265.69L885.64 214.69zM885.64 418.69L929.81 444.19L929.81 495.19L885.64 520.69L841.47 495.19L841.47 444.19zM973.98 -40.31L1018.15 -14.81L1018.15 36.19L973.98 61.69L929.81 36.19L929.81 -14.81zM973.98 265.69L1018.15 291.19L1018.15 342.19L973.98 367.69L929.81 342.19L929.81 291.19zM1062.32 -40.31L1106.48 -14.81L1106.48 36.19L1062.32 61.69L1018.15 36.19L1018.15 -14.81zM1062.32 112.69L1106.48 138.19L1106.48 189.19L1062.32 214.69L1018.15 189.19L1018.15 138.19zM1194.82 36.19L1238.99 61.69L1238.99 112.69L1194.82 138.19L1150.65 112.69L1150.65 61.69zM1150.65 112.69L1194.82 138.19L1194.82 189.19L1150.65 214.69L1106.48 189.19L1106.48 138.19zM1150.65 265.69L1194.82 291.19L1194.82 342.19L1150.65 367.69L1106.48 342.19L1106.48 291.19zM1194.82 495.19L1238.99 520.69L1238.99 571.69L1194.82 597.19L1150.65 571.69L1150.65 520.69zM1238.99 112.69L1283.16 138.19L1283.16 189.19L1238.99 214.69L1194.82 189.19L1194.82 138.19zM1327.33 -40.31L1371.5 -14.81L1371.5 36.19L1327.33 61.69L1283.16 36.19L1283.16 -14.81zM1371.5 342.19L1415.66 367.69L1415.66 418.69L1371.5 444.19L1327.33 418.69L1327.33 367.69zM1415.66 265.69L1459.83 291.19L1459.83 342.19L1415.66 367.69L1371.5 342.19L1371.5 291.19zM1459.83 342.19L1504 367.69L1504 418.69L1459.83 444.19L1415.66 418.69L1415.66 367.69zM1415.66 418.69L1459.83 444.19L1459.83 495.19L1415.66 520.69L1371.5 495.19L1371.5 444.19z" stroke="rgba(6, 80, 156, 0.93)" stroke-width="2"></path></g><defs><mask id="SvgjsMask1146"><rect width="1440" height="560" fill="#ffffff"></rect></mask></defs></svg>