<svg xmlns="http://www.w3.org/2000/svg" version="1.1" xmlns:xlink="http://www.w3.org/1999/xlink" xmlns:svgjs="http://svgjs.dev/svgjs" width="1440" height="560" preserveAspectRatio="none" viewBox="0 0 1440 560"><g mask="url(&quot;#SvgjsMask1153&quot;)" fill="none"><rect width="1440" height="560" x="0" y="0" fill="rgba(0, 0, 0, 0.03)"></rect><path d="M48.72 -30.76L92.89 -5.26L92.89 45.74L48.72 71.24L4.55 45.74L4.55 -5.26zM92.89 198.74L137.06 224.24L137.06 275.24L92.89 300.74L48.72 275.24L48.72 224.24zM137.06 -30.76L181.23 -5.26L181.23 45.74L137.06 71.24L92.89 45.74L92.89 -5.26zM137.06 122.24L181.23 147.74L181.23 198.74L137.06 224.24L92.89 198.74L92.89 147.74zM181.23 504.74L225.39 530.24L225.39 581.24L181.23 606.74L137.06 581.24L137.06 530.24zM225.39 122.24L269.56 147.74L269.56 198.74L225.39 224.24L181.23 198.74L181.23 147.74zM313.73 -30.76L357.9 -5.26L357.9 45.74L313.73 71.24L269.56 45.74L269.56 -5.26zM357.9 198.74L402.07 224.24L402.07 275.24L357.9 300.74L313.73 275.24L313.73 224.24zM357.9 351.74L402.07 377.24L402.07 428.24L357.9 453.74L313.73 428.24L313.73 377.24zM313.73 428.24L357.9 453.74L357.9 504.74L313.73 530.24L269.56 504.74L269.56 453.74zM402.07 -30.76L446.24 -5.26L446.24 45.74L402.07 71.24L357.9 45.74L357.9 -5.26zM402.07 428.24L446.24 453.74L446.24 504.74L402.07 530.24L357.9 504.74L357.9 453.74zM446.24 504.74L490.41 530.24L490.41 581.24L446.24 606.74L402.07 581.24L402.07 530.24zM490.41 122.24L534.57 147.74L534.57 198.74L490.41 224.24L446.24 198.74L446.24 147.74zM534.57 198.74L578.74 224.24L578.74 275.24L534.57 300.74L490.41 275.24L490.41 224.24zM534.57 351.74L578.74 377.24L578.74 428.24L534.57 453.74L490.41 428.24L490.41 377.24zM534.57 504.74L578.74 530.24L578.74 581.24L534.57 606.74L490.41 581.24L490.41 530.24zM622.91 45.74L667.08 71.24L667.08 122.24L622.91 147.74L578.74 122.24L578.74 71.24zM622.91 198.74L667.08 224.24L667.08 275.24L622.91 300.74L578.74 275.24L578.74 224.24zM622.91 351.74L667.08 377.24L667.08 428.24L622.91 453.74L578.74 428.24L578.74 377.24zM622.91 504.74L667.08 530.24L667.08 581.24L622.91 606.74L578.74 581.24L578.74 530.24zM711.25 198.74L755.42 224.24L755.42 275.24L711.25 300.74L667.08 275.24L667.08 224.24zM667.08 275.24L711.25 300.74L711.25 351.74L667.08 377.24L622.91 351.74L622.91 300.74zM711.25 504.74L755.42 530.24L755.42 581.24L711.25 606.74L667.08 581.24L667.08 530.24zM755.42 -30.76L799.59 -5.26L799.59 45.74L755.42 71.24L711.25 45.74L711.25 -5.26zM799.59 45.74L843.75 71.24L843.75 122.24L799.59 147.74L755.42 122.24L755.42 71.24zM799.59 198.74L843.75 224.24L843.75 275.24L799.59 300.74L755.42 275.24L755.42 224.24zM799.59 351.74L843.75 377.24L843.75 428.24L799.59 453.74L755.42 428.24L755.42 377.24zM887.92 45.74L932.09 71.24L932.09 122.24L887.92 147.74L843.75 122.24L843.75 71.24zM843.75 275.24L887.92 300.74L887.92 351.74L843.75 377.24L799.59 351.74L799.59 300.74zM843.75 428.24L887.92 453.74L887.92 504.74L843.75 530.24L799.59 504.74L799.59 453.74zM932.09 122.24L976.26 147.74L976.26 198.74L932.09 224.24L887.92 198.74L887.92 147.74zM976.26 198.74L1020.43 224.24L1020.43 275.24L976.26 300.74L932.09 275.24L932.09 224.24zM932.09 428.24L976.26 453.74L976.26 504.74L932.09 530.24L887.92 504.74L887.92 453.74zM1020.43 -30.76L1064.6 -5.26L1064.6 45.74L1020.43 71.24L976.26 45.74L976.26 -5.26zM1064.6 45.74L1108.77 71.24L1108.77 122.24L1064.6 147.74L1020.43 122.24L1020.43 71.24zM1152.93 351.74L1197.1 377.24L1197.1 428.24L1152.93 453.74L1108.77 428.24L1108.77 377.24zM1197.1 -30.76L1241.27 -5.26L1241.27 45.74L1197.1 71.24L1152.93 45.74L1152.93 -5.26zM1241.27 45.74L1285.44 71.24L1285.44 122.24L1241.27 147.74L1197.1 122.24L1197.1 71.24zM1373.78 122.24L1417.95 147.74L1417.95 198.74L1373.78 224.24L1329.61 198.74L1329.61 147.74zM1417.95 351.74L1462.11 377.24L1462.11 428.24L1417.95 453.74L1373.78 428.24L1373.78 377.24zM1373.78 428.24L1417.95 453.74L1417.95 504.74L1373.78 530.24L1329.61 504.74L1329.61 453.74zM1506.28 198.74L1550.45 224.24L1550.45 275.24L1506.28 300.74L1462.11 275.24L1462.11 224.24zM1462.11 428.24L1506.28 453.74L1506.28 504.74L1462.11 530.24L1417.95 504.74L1417.95 453.74z" stroke="rgba(6, 80, 156, 0.1)" stroke-width="2"></path></g><defs><mask id="SvgjsMask1153"><rect width="1440" height="560" fill="#ffffff"></rect></mask></defs></svg>